<svg xmlns="http://www.w3.org/2000/svg" viewBox="0 0 1200 630" width="1200" height="630">
  <defs>
    <linearGradient id="bg" x1="0%" y1="0%" x2="100%" y2="100%">
      <stop offset="0%" stop-color="#080808"/>
      <stop offset="100%" stop-color="#111111"/>
    </linearGradient>
    <filter id="noise">
      <feTurbulence type="fractalNoise" baseFrequency="0.9" numOctaves="2" stitchTiles="stitch"/>
      <feColorMatrix values="0 0 0 0 1 0 0 0 0 1 0 0 0 0 1 0 0 0 0.04 0"/>
    </filter>
  </defs>

  <rect width="1200" height="630" fill="url(#bg)"/>
  <rect width="1200" height="630" filter="url(#noise)" opacity="0.6"/>

  <!-- Corner accents -->
  <path d="M40 40h60M40 40v60M1160 40h-60M1160 40v60M40 590h60M40 590v-60M1160 590h-60M1160 590v-60" stroke="#DBFF00" stroke-width="2" fill="none"/>

  <!-- Eyebrow -->
  <text x="80" y="130" font-family="'Inter', sans-serif" font-weight="700" font-size="18" fill="#DBFF00" letter-spacing="4">CONCERTRIDE · ESPAÑA</text>

  <!-- Headline -->
  <text x="80" y="270" font-family="'Archivo Black', sans-serif" font-size="140" fill="#F5F5F5" letter-spacing="-2">GET TO THE</text>
  <text x="80" y="410" font-family="'Archivo Black', sans-serif" font-size="140" fill="#DBFF00" letter-spacing="-2">SHOW.</text>

  <!-- Subline -->
  <text x="80" y="490" font-family="'Inter', sans-serif" font-size="28" fill="#888">Comparte el viaje. Divide el coste. Llega al show.</text>

  <!-- Ticket stub -->
  <g transform="translate(780 440) rotate(8)">
    <rect x="0" y="0" width="340" height="130" fill="#1A1A1A" stroke="#2A2A2A"/>
    <rect x="240" y="0" width="1" height="130" stroke="#2A2A2A" stroke-dasharray="4 3"/>
    <circle cx="240" cy="0" r="6" fill="#080808" stroke="#2A2A2A"/>
    <circle cx="240" cy="130" r="6" fill="#080808" stroke="#2A2A2A"/>
    <text x="20" y="34" font-family="'Archivo Black', sans-serif" font-size="22" fill="#F5F5F5">ROSALÍA</text>
    <text x="20" y="58" font-family="'JetBrains Mono', monospace" font-size="11" fill="#888">WiZink · Madrid</text>
    <text x="20" y="78" font-family="'JetBrains Mono', monospace" font-size="11" fill="#888">22 MAY · 21:00</text>
    <text x="20" y="110" font-family="'Inter', sans-serif" font-weight="700" font-size="10" fill="#DBFF00" letter-spacing="2">DE · VALENCIA</text>
    <text x="256" y="70" font-family="'JetBrains Mono', monospace" font-size="28" fill="#DBFF00">€18</text>
    <text x="256" y="88" font-family="'Inter', sans-serif" font-weight="700" font-size="8" fill="#888" letter-spacing="2">/ASIENTO</text>
  </g>

  <text x="80" y="590" font-family="'JetBrains Mono', monospace" font-size="14" fill="#444">concertride.es</text>
</svg>
